<mxfile host="app.diagrams.net" modified="2023-02-19T13:58:35.830Z" agent="5.0 (Windows NT 10.0; Win64; x64) AppleWebKit/537.36 (KHTML, like Gecko) Chrome/110.0.0.0 Safari/537.36" etag="4__If6W3sU9aSUvz8N0O" version="20.8.20" type="github">
  <diagram id="R2lEEEUBdFMjLlhIrx00" name="Page-1">
    <mxGraphModel dx="1050" dy="602" grid="1" gridSize="10" guides="1" tooltips="1" connect="1" arrows="1" fold="1" page="1" pageScale="1" pageWidth="3300" pageHeight="4681" math="0" shadow="0" extFonts="Permanent Marker^https://fonts.googleapis.com/css?family=Permanent+Marker">
      <root>
        <mxCell id="0" />
        <mxCell id="1" parent="0" />
        <mxCell id="C-vyLk0tnHw3VtMMgP7b-12" value="" style="edgeStyle=entityRelationEdgeStyle;endArrow=ERzeroToMany;startArrow=ERone;endFill=1;startFill=0;" parent="1" target="C-vyLk0tnHw3VtMMgP7b-17" edge="1">
          <mxGeometry width="100" height="100" relative="1" as="geometry">
            <mxPoint x="700" y="165" as="sourcePoint" />
            <mxPoint x="460" y="205" as="targetPoint" />
          </mxGeometry>
        </mxCell>
        <mxCell id="hiJo9-5eCX-MLsrilgHQ-1" value="" style="rounded=0;whiteSpace=wrap;html=1;" vertex="1" parent="1">
          <mxGeometry x="80" y="1030" width="2920" height="710" as="geometry" />
        </mxCell>
        <mxCell id="hiJo9-5eCX-MLsrilgHQ-2" value="Product" style="swimlane;fontStyle=0;childLayout=stackLayout;horizontal=1;startSize=26;horizontalStack=0;resizeParent=1;resizeParentMax=0;resizeLast=0;collapsible=1;marginBottom=0;align=center;fontSize=14;" vertex="1" parent="1">
          <mxGeometry x="110" y="1240" width="300" height="190" as="geometry" />
        </mxCell>
        <mxCell id="hiJo9-5eCX-MLsrilgHQ-3" value="+ id: PK INT" style="text;strokeColor=none;fillColor=none;spacingLeft=4;spacingRight=4;overflow=hidden;rotatable=0;points=[[0,0.5],[1,0.5]];portConstraint=eastwest;fontSize=12;" vertex="1" parent="hiJo9-5eCX-MLsrilgHQ-2">
          <mxGeometry y="26" width="300" height="30" as="geometry" />
        </mxCell>
        <mxCell id="hiJo9-5eCX-MLsrilgHQ-4" value="+name: VARCHAR (60)" style="text;strokeColor=none;fillColor=none;spacingLeft=4;spacingRight=4;overflow=hidden;rotatable=0;points=[[0,0.5],[1,0.5]];portConstraint=eastwest;fontSize=12;" vertex="1" parent="hiJo9-5eCX-MLsrilgHQ-2">
          <mxGeometry y="56" width="300" height="30" as="geometry" />
        </mxCell>
        <mxCell id="hiJo9-5eCX-MLsrilgHQ-5" value="+ descriotion: VARCHAR (255)&#xa;&#xa;+price: INT&#xa;&#xa;+categoty: id FK category INT" style="text;strokeColor=none;fillColor=none;spacingLeft=4;spacingRight=4;overflow=hidden;rotatable=0;points=[[0,0.5],[1,0.5]];portConstraint=eastwest;fontSize=12;" vertex="1" parent="hiJo9-5eCX-MLsrilgHQ-2">
          <mxGeometry y="86" width="300" height="104" as="geometry" />
        </mxCell>
        <mxCell id="hiJo9-5eCX-MLsrilgHQ-6" value="Category" style="swimlane;fontStyle=0;childLayout=stackLayout;horizontal=1;startSize=26;horizontalStack=0;resizeParent=1;resizeParentMax=0;resizeLast=0;collapsible=1;marginBottom=0;align=center;fontSize=14;" vertex="1" parent="1">
          <mxGeometry x="530" y="1130" width="300" height="130" as="geometry" />
        </mxCell>
        <mxCell id="hiJo9-5eCX-MLsrilgHQ-7" value="+ id: PK INT" style="text;strokeColor=none;fillColor=none;spacingLeft=4;spacingRight=4;overflow=hidden;rotatable=0;points=[[0,0.5],[1,0.5]];portConstraint=eastwest;fontSize=12;" vertex="1" parent="hiJo9-5eCX-MLsrilgHQ-6">
          <mxGeometry y="26" width="300" height="30" as="geometry" />
        </mxCell>
        <mxCell id="hiJo9-5eCX-MLsrilgHQ-8" value="+name: VARCHAR (60)" style="text;strokeColor=none;fillColor=none;spacingLeft=4;spacingRight=4;overflow=hidden;rotatable=0;points=[[0,0.5],[1,0.5]];portConstraint=eastwest;fontSize=12;" vertex="1" parent="hiJo9-5eCX-MLsrilgHQ-6">
          <mxGeometry y="56" width="300" height="30" as="geometry" />
        </mxCell>
        <mxCell id="hiJo9-5eCX-MLsrilgHQ-9" value="+ descriotion: VARCHAR (60)&#xa;" style="text;strokeColor=none;fillColor=none;spacingLeft=4;spacingRight=4;overflow=hidden;rotatable=0;points=[[0,0.5],[1,0.5]];portConstraint=eastwest;fontSize=12;" vertex="1" parent="hiJo9-5eCX-MLsrilgHQ-6">
          <mxGeometry y="86" width="300" height="44" as="geometry" />
        </mxCell>
        <mxCell id="hiJo9-5eCX-MLsrilgHQ-10" value="" style="edgeStyle=entityRelationEdgeStyle;fontSize=12;html=1;endArrow=ERoneToMany;rounded=0;entryX=1;entryY=0.721;entryDx=0;entryDy=0;entryPerimeter=0;" edge="1" parent="1" source="hiJo9-5eCX-MLsrilgHQ-7" target="hiJo9-5eCX-MLsrilgHQ-5">
          <mxGeometry width="100" height="100" relative="1" as="geometry">
            <mxPoint x="490" y="1170" as="sourcePoint" />
            <mxPoint x="460" y="1410" as="targetPoint" />
          </mxGeometry>
        </mxCell>
        <mxCell id="hiJo9-5eCX-MLsrilgHQ-11" value="User" style="swimlane;fontStyle=0;childLayout=stackLayout;horizontal=1;startSize=26;horizontalStack=0;resizeParent=1;resizeParentMax=0;resizeLast=0;collapsible=1;marginBottom=0;align=center;fontSize=14;" vertex="1" parent="1">
          <mxGeometry x="970" y="1310" width="290" height="170" as="geometry" />
        </mxCell>
        <mxCell id="hiJo9-5eCX-MLsrilgHQ-12" value="+ id: PK INT" style="text;strokeColor=none;fillColor=none;spacingLeft=4;spacingRight=4;overflow=hidden;rotatable=0;points=[[0,0.5],[1,0.5]];portConstraint=eastwest;fontSize=12;" vertex="1" parent="hiJo9-5eCX-MLsrilgHQ-11">
          <mxGeometry y="26" width="290" height="30" as="geometry" />
        </mxCell>
        <mxCell id="hiJo9-5eCX-MLsrilgHQ-13" value="+ name: VARCHAR(60)" style="text;strokeColor=none;fillColor=none;spacingLeft=4;spacingRight=4;overflow=hidden;rotatable=0;points=[[0,0.5],[1,0.5]];portConstraint=eastwest;fontSize=12;" vertex="1" parent="hiJo9-5eCX-MLsrilgHQ-11">
          <mxGeometry y="56" width="290" height="30" as="geometry" />
        </mxCell>
        <mxCell id="hiJo9-5eCX-MLsrilgHQ-14" value="+ surname: VARCHAR (60)&#xa;Â &#xa;+ username: VARCHAR (60) UNIQUE&#xa;&#xa;+email: VARCHAR (120) UNIQUE" style="text;strokeColor=none;fillColor=none;spacingLeft=4;spacingRight=4;overflow=hidden;rotatable=0;points=[[0,0.5],[1,0.5]];portConstraint=eastwest;fontSize=12;" vertex="1" parent="hiJo9-5eCX-MLsrilgHQ-11">
          <mxGeometry y="86" width="290" height="84" as="geometry" />
        </mxCell>
        <mxCell id="hiJo9-5eCX-MLsrilgHQ-15" value="Customers" style="swimlane;fontStyle=0;childLayout=stackLayout;horizontal=1;startSize=26;horizontalStack=0;resizeParent=1;resizeParentMax=0;resizeLast=0;collapsible=1;marginBottom=0;align=center;fontSize=14;" vertex="1" parent="1">
          <mxGeometry x="1440" y="1140" width="290" height="110" as="geometry" />
        </mxCell>
        <mxCell id="hiJo9-5eCX-MLsrilgHQ-16" value="+ id: PK INT&#xa;&#xa;+ cashback: INT&#xa;&#xa;+ user_id: FK INT" style="text;strokeColor=none;fillColor=none;spacingLeft=4;spacingRight=4;overflow=hidden;rotatable=0;points=[[0,0.5],[1,0.5]];portConstraint=eastwest;fontSize=12;" vertex="1" parent="hiJo9-5eCX-MLsrilgHQ-15">
          <mxGeometry y="26" width="290" height="84" as="geometry" />
        </mxCell>
        <mxCell id="hiJo9-5eCX-MLsrilgHQ-17" value="" style="edgeStyle=entityRelationEdgeStyle;fontSize=12;html=1;endArrow=ERmandOne;startArrow=ERmandOne;rounded=0;exitX=1;exitY=0.5;exitDx=0;exitDy=0;entryX=-0.001;entryY=0.85;entryDx=0;entryDy=0;entryPerimeter=0;" edge="1" parent="1" source="hiJo9-5eCX-MLsrilgHQ-12" target="hiJo9-5eCX-MLsrilgHQ-16">
          <mxGeometry width="100" height="100" relative="1" as="geometry">
            <mxPoint x="1260" y="1385" as="sourcePoint" />
            <mxPoint x="1360" y="1285" as="targetPoint" />
          </mxGeometry>
        </mxCell>
        <mxCell id="hiJo9-5eCX-MLsrilgHQ-18" value="Admin" style="swimlane;fontStyle=0;childLayout=stackLayout;horizontal=1;startSize=26;horizontalStack=0;resizeParent=1;resizeParentMax=0;resizeLast=0;collapsible=1;marginBottom=0;align=center;fontSize=14;" vertex="1" parent="1">
          <mxGeometry x="1450" y="1540" width="290" height="110" as="geometry" />
        </mxCell>
        <mxCell id="hiJo9-5eCX-MLsrilgHQ-19" value="+ id: PK INT&#xa;&#xa;+ ROLE_ID: INT&#xa;&#xa;+ user_id: FK INT" style="text;strokeColor=none;fillColor=none;spacingLeft=4;spacingRight=4;overflow=hidden;rotatable=0;points=[[0,0.5],[1,0.5]];portConstraint=eastwest;fontSize=12;" vertex="1" parent="hiJo9-5eCX-MLsrilgHQ-18">
          <mxGeometry y="26" width="290" height="84" as="geometry" />
        </mxCell>
        <mxCell id="hiJo9-5eCX-MLsrilgHQ-20" value="" style="edgeStyle=entityRelationEdgeStyle;fontSize=12;html=1;endArrow=ERmandOne;startArrow=ERmandOne;rounded=0;exitX=1;exitY=0.5;exitDx=0;exitDy=0;entryX=0.003;entryY=0.861;entryDx=0;entryDy=0;entryPerimeter=0;" edge="1" parent="1" source="hiJo9-5eCX-MLsrilgHQ-12" target="hiJo9-5eCX-MLsrilgHQ-19">
          <mxGeometry width="100" height="100" relative="1" as="geometry">
            <mxPoint x="1580" y="1460" as="sourcePoint" />
            <mxPoint x="1680" y="1360" as="targetPoint" />
          </mxGeometry>
        </mxCell>
        <mxCell id="hiJo9-5eCX-MLsrilgHQ-21" value="Role" style="swimlane;fontStyle=0;childLayout=stackLayout;horizontal=1;startSize=26;horizontalStack=0;resizeParent=1;resizeParentMax=0;resizeLast=0;collapsible=1;marginBottom=0;align=center;fontSize=14;" vertex="1" parent="1">
          <mxGeometry x="1960" y="1480" width="290" height="60" as="geometry" />
        </mxCell>
        <mxCell id="hiJo9-5eCX-MLsrilgHQ-22" value="+ id: PK INT&#xa;&#xa;" style="text;strokeColor=none;fillColor=none;spacingLeft=4;spacingRight=4;overflow=hidden;rotatable=0;points=[[0,0.5],[1,0.5]];portConstraint=eastwest;fontSize=12;" vertex="1" parent="hiJo9-5eCX-MLsrilgHQ-21">
          <mxGeometry y="26" width="290" height="34" as="geometry" />
        </mxCell>
        <mxCell id="hiJo9-5eCX-MLsrilgHQ-23" value="SUPER_ADMIN&lt;br&gt;MODERATOR&lt;br&gt;MANAGER" style="text;html=1;align=center;verticalAlign=middle;resizable=0;points=[];autosize=1;strokeColor=none;fillColor=none;" vertex="1" parent="1">
          <mxGeometry x="2060" y="1380" width="110" height="60" as="geometry" />
        </mxCell>
        <mxCell id="hiJo9-5eCX-MLsrilgHQ-24" value="" style="edgeStyle=entityRelationEdgeStyle;fontSize=12;html=1;endArrow=ERoneToMany;rounded=0;exitX=0;exitY=0.5;exitDx=0;exitDy=0;entryX=1.003;entryY=0.144;entryDx=0;entryDy=0;entryPerimeter=0;" edge="1" parent="1" source="hiJo9-5eCX-MLsrilgHQ-22" target="hiJo9-5eCX-MLsrilgHQ-19">
          <mxGeometry width="100" height="100" relative="1" as="geometry">
            <mxPoint x="1810" y="1540" as="sourcePoint" />
            <mxPoint x="1780" y="1580" as="targetPoint" />
          </mxGeometry>
        </mxCell>
        <mxCell id="hiJo9-5eCX-MLsrilgHQ-25" value="PERMISSIONS" style="swimlane;fontStyle=0;childLayout=stackLayout;horizontal=1;startSize=26;horizontalStack=0;resizeParent=1;resizeParentMax=0;resizeLast=0;collapsible=1;marginBottom=0;align=center;fontSize=14;" vertex="1" parent="1">
          <mxGeometry x="2620" y="1460" width="290" height="240" as="geometry" />
        </mxCell>
        <mxCell id="hiJo9-5eCX-MLsrilgHQ-26" value="+ id: PK INT&#xa;&#xa;+ name: VARCHAR(255)&#xa;&#xa;+role_id : FK ROLES" style="text;strokeColor=none;fillColor=none;spacingLeft=4;spacingRight=4;overflow=hidden;rotatable=0;points=[[0,0.5],[1,0.5]];portConstraint=eastwest;fontSize=12;" vertex="1" parent="hiJo9-5eCX-MLsrilgHQ-25">
          <mxGeometry y="26" width="290" height="214" as="geometry" />
        </mxCell>
        <mxCell id="hiJo9-5eCX-MLsrilgHQ-27" value="GET_USER&lt;br&gt;CHANGE_PASSWORD&lt;br&gt;DELETE_PRODUCT" style="text;html=1;align=center;verticalAlign=middle;resizable=0;points=[];autosize=1;strokeColor=none;fillColor=none;" vertex="1" parent="1">
          <mxGeometry x="2710" y="1360" width="150" height="60" as="geometry" />
        </mxCell>
        <mxCell id="hiJo9-5eCX-MLsrilgHQ-28" value="" style="edgeStyle=entityRelationEdgeStyle;fontSize=12;html=1;endArrow=ERoneToMany;rounded=0;entryX=-0.001;entryY=0.334;entryDx=0;entryDy=0;entryPerimeter=0;exitX=1;exitY=0.5;exitDx=0;exitDy=0;" edge="1" parent="1" source="hiJo9-5eCX-MLsrilgHQ-22" target="hiJo9-5eCX-MLsrilgHQ-26">
          <mxGeometry width="100" height="100" relative="1" as="geometry">
            <mxPoint x="2480" y="1480" as="sourcePoint" />
            <mxPoint x="2580" y="1380" as="targetPoint" />
          </mxGeometry>
        </mxCell>
      </root>
    </mxGraphModel>
  </diagram>
</mxfile>
